<svg width="43" height="36" viewBox="0 0 43 36" fill="none" xmlns="http://www.w3.org/2000/svg">
<path fill-rule="evenodd" clip-rule="evenodd" d="M13.3702 27.9364L20.0556 21.7001C19.1865 21.6152 18.5403 21.5728 17.8272 21.5728C11.8771 21.5728 -0.000610352 24.4152 -0.000610352 30.0576V34.3001H20.0556L13.3702 27.9364ZM17.8272 17.3304C22.7521 17.3304 26.741 13.5334 26.741 8.84555C26.741 4.15768 22.7521 0.360718 17.8272 0.360718C12.9022 0.360718 8.91327 4.15768 8.91327 8.84555C8.91327 13.5334 12.9022 17.3304 17.8272 17.3304Z" fill="#00CE8D"/>
<path fill-rule="evenodd" clip-rule="evenodd" d="M27.79 35.3607L20.0572 27.9364L23.177 24.9455L27.79 29.3576L39.222 18.3909L42.3419 21.3818L27.79 35.3607Z" fill="#00CE8D"/>
</svg>